inDegrees=no
num_controls=7
num_derivatives=13
num_iterations=130
num_multipliers=7
num_parameters=0
num_slacks=7
num_states=26
objective=0.477012
objective_accelerations=0.044304
objective_balance=0.003632
objective_effort=0.040520
objective_height=0.382894
objective_ligament=0.005663
solver_duration=1787.716625
status=Solve_Succeeded
success=true
DataType=double
version=3
OpenSimVersion=4.5
endheader
time	/jointset/ground_pelvis/pelvis_tilt/value	/jointset/ground_pelvis/pelvis_tx/value	/jointset/ground_pelvis/pelvis_ty/value	/jointset/hip_l/hip_flexion_l/value	/jointset/hip_l/hip_adduction_l/value	/jointset/hip_l/hip_rotation_l/value	/jointset/back/lumbar_extension/value	/jointset/patellofemoral_l/patellar_flexion_l/value	/jointset/knee_l/knee_flexion_l/value	/jointset/knee_l/knee_adduction_l/value	/jointset/knee_l/knee_rotation_l/value	/jointset/ankle_l/ankle_angle_l/value	/jointset/subtalar_l/subtalar_angle_l/value	/jointset/ground_pelvis/pelvis_tilt/speed	/jointset/ground_pelvis/pelvis_tx/speed	/jointset/ground_pelvis/pelvis_ty/speed	/jointset/hip_l/hip_flexion_l/speed	/jointset/hip_l/hip_adduction_l/speed	/jointset/hip_l/hip_rotation_l/speed	/jointset/back/lumbar_extension/speed	/jointset/patellofemoral_l/patellar_flexion_l/speed	/jointset/knee_l/knee_flexion_l/speed	/jointset/knee_l/knee_adduction_l/speed	/jointset/knee_l/knee_rotation_l/speed	/jointset/ankle_l/ankle_angle_l/speed	/jointset/subtalar_l/subtalar_angle_l/speed	/forceset/tau_hip_flexion_l	/forceset/tau_hip_adduction_l	/forceset/tau_hip_rotation_l	/forceset/tau_knee_flexion_l	/forceset/tau_ankle_angle_l	/forceset/tau_subtalar_angle_l	/forceset/tau_lumbar_extension	lambda_cid13_p0	lambda_cid13_p1	lambda_cid13_p2	lambda_cid13_p3	lambda_cid13_p4	lambda_cid13_p5	lambda_cid14_p0	/jointset/ground_pelvis/pelvis_tilt/accel	/jointset/ground_pelvis/pelvis_tx/accel	/jointset/ground_pelvis/pelvis_ty/accel	/jointset/hip_l/hip_flexion_l/accel	/jointset/hip_l/hip_adduction_l/accel	/jointset/hip_l/hip_rotation_l/accel	/jointset/back/lumbar_extension/accel	/jointset/patellofemoral_l/patellar_flexion_l/accel	/jointset/knee_l/knee_flexion_l/accel	/jointset/knee_l/knee_adduction_l/accel	/jointset/knee_l/knee_rotation_l/accel	/jointset/ankle_l/ankle_angle_l/accel	/jointset/subtalar_l/subtalar_angle_l/accel	gamma_cid13_p0	gamma_cid13_p1	gamma_cid13_p2	gamma_cid13_p3	gamma_cid13_p4	gamma_cid13_p5	gamma_cid14_p0
1	-0.1098842299737345	-0.05909770333176806	0.6816730324824568	1.329171672470395	-0.3279143989645161	0.07256455752832906	-0.9599308496463203	1.399591000827581	1.399591000827623	-0.06548378416187416	-0.1745326959662313	0.2781020378521815	0.06460449511182211	0.10299948643289	0.02552079304574895	0.06978801096472882	-0.2975406797347462	-0.007278105684397741	-0.06513409949659708	-0.0001515485312024222	-0.1598324697373949	-0.1598324697373922	-0.001652705293537572	-1.304452089423497e-05	0.02597174087989499	0.002889553148691782	-0.3729248707676162	0.01471398842982241	0.001423043265216197	-0.3775103398300382	0.0403320731584391	0.02659912620827495	0.4257198814529348	-38.26380948035527	-3.951813182708872	-0.8528353566966398	13.25278047050087	-800.1925756100983	-70.68280768321009	-0.0415466818906642	0.8218606228541423	-0.003677819433669603	1.551618789666441	-4.991780646907816	-0.1301490193515105	-1.66722937428585	0.009785319396566912	-5.00903371214395	-5.009033712143951	-0.3540702886267837	-0.01586750123145088	-1.194210666103387	-0.6708608785044806	-9.483323886600745e-09	1.99244495686132e-08	6.418566019335269e-08	7.33256684487887e-09	-2.414809704393606e-08	1.262039792015288e-07	-1.680637712264328e-08
1.01	-0.1088135150845797	-0.05884261400095742	0.6824482665954338	1.325947563211948	-0.3279929289969371	0.07182903604343399	-0.9599310885968813	1.397742639229748	1.397742639229742	-0.06551608070241065	-0.1745326800762453	0.2783021770129515	0.06460092721693844	0.1111440608457617	0.02550453732803359	0.08524640453286952	-0.3472590157766633	-0.008418997548909608	-0.08196269254441375	0.0001321338847576635	-0.2098287020189895	-0.2098287020189896	-0.004803838938669279	1.38992717828905e-05	0.01404553448569025	-0.003596024073464613	-0.3722514681151702	0.01491602088347758	0.001344630139135228	-0.3771670518949135	0.04008987277910132	0.02675315774714184	0.4254670937876575	-38.30457083624952	-4.027055298967493	-0.8231540664533001	13.12602445762	-799.8471090791301	-70.74776416916899	-0.04158070318397077	0.8108391910641988	0.0005230012982289242	1.541082479113444	-4.958539555766435	-0.1047314357448561	-1.68956637279504	0.04219269934197847	-4.993241159011887	-4.993241159012311	-0.2952315780414058	0.01164965079570786	-1.193409330459335	-0.6363528606169447	-1.61949909739986e-08	1.26705880059146e-08	9.341708226121549e-08	1.401990022242256e-08	-3.041967787826951e-08	1.465181432791635e-07	-2.321332302037299e-08
1.02	-0.1076613377831841	-0.05858746273747618	0.6833777112118372	1.322226934698495	-0.3280826023811522	0.0709254502075079	-0.9599276025690753	1.39539465067453	1.395394650674476	-0.06557980791451519	-0.1745324598820798	0.2783827373689033	0.06453271420652408	0.1192919688810532	0.02553317957986874	0.1006301116500291	-0.3968445307358923	-0.009506776043175069	-0.09874696970284927	0.0005971361665655917	-0.2597578612143711	-0.2597578612143745	-0.007938839607202611	2.781631559642497e-05	0.002055979916272637	-0.01003946995745024	-0.3715780654627258	0.01511805333713346	0.001266217013055463	-0.3768237639597889	0.03984767239976401	0.02690718928600989	0.4252143061223791	-38.35682544930587	-4.098874068316818	-0.7956303245074953	13.05662808050648	-799.6486145549966	-70.78765927645536	-0.04161531365842108	0.8225273473380853	0.005301774476436125	1.53668149947021	-4.965216430370162	-0.1195263453022307	-1.658366196409619	0.0460492925661194	-4.995619094901337	-4.995619094901425	-0.3508436933071092	-0.01847285100417124	-1.206880301145963	-0.6624346108703277	-2.315063801167672e-08	3.497271155966284e-09	1.21635705653948e-07	2.037834391547684e-08	-3.717526412964523e-08	1.645270406723432e-07	-2.960405663065808e-08
1.03	-0.1064281949184465	-0.0583315664459292	0.6844605709440361	1.318011468487168	-0.3281828598666	0.06985432920197486	-0.9599165352163377	1.392547795598384	1.392547795598351	-0.06567482260871826	-0.1745321191091174	0.2783433731898849	0.06440045549090026	0.1272848777886822	0.02567725413781153	0.1159248372177435	-0.4461931638507989	-0.01053552932511004	-0.1154654215960069	0.001847733870164383	-0.3095939154123479	-0.309593915412351	-0.01106292733080529	3.736508695505076e-05	-0.009910870657887098	-0.01639088085403493	-0.3723488842111258	0.01544870078401889	0.001145714548486962	-0.3759351102664958	0.03940553383427219	0.02719083725751269	0.426685468034056	-38.49886899004449	-4.228182201188008	-0.7396162778368679	12.57880754278283	-800.2876910162113	-70.84001965798988	-0.04165729059027744	0.7799111274901398	0.02364199290002808	1.523309621488912	-4.911358508200321	-0.09318495072039724	-1.676841888540161	0.1992749321510647	-4.974705554209573	-4.974705554209471	-0.2930340899033728	0.01025762395832008	-1.188897491300975	-0.6183020350298791	-3.010877464068423e-08	-5.695631972423369e-09	1.498439943663221e-07	2.673343159134245e-08	-4.393578921180708e-08	1.825124149360897e-07	-3.599462480943863e-08
1.04	-0.1051166752716298	-0.05807329306951341	0.6856958662391256	1.31330418159346	-0.3282931319110836	0.06861637223695505	-0.9598860199019644	1.389203158585865	1.389203158585854	-0.06580104673576129	-0.1745317650718904	0.2781848784939749	0.06420532112511514	0.1349673252969039	0.026008596553631	0.1311172242281297	-0.4952086672116823	-0.01150968785029528	-0.1321141616000179	0.004486728489534136	-0.3593142484888741	-0.3593142484888764	-0.01418072617506913	3.046916841102713e-05	-0.02177012346204693	-0.02261459998971355	-0.3731197029595296	0.01577934823090231	0.001025212083916345	-0.3750464565732034	0.03896339526878033	0.02747448522901281	0.4281566299457299	-38.65264639493423	-4.353975460347621	-0.6858307971941026	12.15700145878832	-801.0778395655316	-70.86776650249784	-0.04169837090833308	0.7604350674566082	0.04275534605177324	1.516213788004556	-4.898590479565538	-0.108607393952287	-1.644423818580294	0.3237286757202499	-4.972474870611211	-4.972474870611208	-0.3495859174393427	-0.02176178898470771	-1.185360747145981	-0.6368962586891175	-3.469484596379178e-08	-1.635329193169916e-08	1.763734334008017e-07	2.846934521717107e-08	-4.983501187705728e-08	1.920388663440995e-07	-4.148232428527346e-08
1.05	-0.1037297032270603	-0.05781078502524171	0.6870825205996303	1.308108376855651	-0.3284128330670039	0.06721237115017115	-0.9598226845015647	1.385361975785086	1.385361975785089	-0.06595844452807915	-0.1745315416794949	0.2779082636448961	0.06394862344607023	0.142391626990058	0.02652269250000394	0.1461911424455494	-0.5438978981148258	-0.01241639646819141	-0.1486687559063537	0.008362972911002901	-0.4088953964515266	-0.408895396451529	-0.0172954702192524	1.46804198800015e-05	-0.0335413406874245	-0.02869860802242701	-0.3732098680474519	0.01608526381604002	0.0008747650779533767	-0.3740381714297891	0.03883638036207183	0.02780842735182433	0.4289757830617021	-38.66270002094303	-4.533166599681597	-0.6162330355798448	11.65857006167957	-801.2289260047864	-70.95460953753344	-0.04175439286979327	0.7281059119254252	0.06019477708566338	1.499593823746497	-4.845936964881475	-0.07960110888485437	-1.65842042251466	0.4469655233729977	-4.946888033286499	-4.946888033286514	-0.2919390648726977	0.008628916615285453	-1.171279076433936	-0.5902233037018645	-3.920679024608997e-08	-2.705672554194013e-08	2.028504083828471e-07	3.006090965393606e-08	-5.570731884177901e-08	2.013009764128677e-07	-4.694180911414123e-08
1.06	-0.1022695525272236	-0.05754224440987514	0.6886192367393361	1.302427310294972	-0.3285411810117386	0.06564333548315282	-0.9597151080173452	1.381025790849842	1.381025790849858	-0.06614689384423188	-0.1745314529077023	0.2775142812503233	0.06363187164107036	0.149603056350437	0.02721511077260485	0.1611295800684005	-0.592261031785678	-0.01323904561315068	-0.1651210776468675	0.01333494525298356	-0.4583146753819489	-0.4583146753819515	-0.02039103094203083	3.545047452299035e-06	-0.04524363256081394	-0.03462542518071685	-0.3733000331353754	0.01639117940117757	0.0007243180719905024	-0.373029886286375	0.03870936545536341	0.02814236947463567	0.4297949361776733	-38.68464558024278	-4.708785209862218	-0.5489072869818169	11.21429150991346	-801.5338035099938	-71.01829416718428	-0.0418086821970319	0.7178606009016009	0.07841981129736797	1.489117669090806	-4.833371033107298	-0.09179549936491639	-1.623969305415913	0.5428742598226155	-4.940101064165197	-4.940101064165196	-0.3457492531583764	-0.02083111376404681	-1.171575676748356	-0.6054580838043973	-4.380320969468748e-08	-3.880967617920845e-08	2.2645295823478e-07	3.14816740245978e-08	-6.108506988423228e-08	2.079057449005248e-07	-5.209116407154339e-08
1.07	-0.1007383342019398	-0.05726587153767056	0.6903045861404191	1.296264376738983	-0.3286773167386288	0.06391039363565267	-0.9595523974320044	1.37619634405992	1.376196344059873	-0.0663662530654046	-0.1745314665245581	0.2770035978715246	0.06325666122031959	0.1566054490130078	0.02809084137274935	0.175910307029723	-0.6402567964188339	-0.01397120092785556	-0.1814449977809378	0.01938539497993546	-0.5075359296737691	-0.5075359296737717	-0.02347628093962474	-6.156321349355071e-06	-0.05688351937507126	-0.04038655279160077	-0.3730173397699811	0.01670120646590769	0.0005421141798944969	-0.3717840088924976	0.03875950053096473	0.02853876189122705	0.4302928579220121	-38.61476046608801	-4.935915547324822	-0.4638762288275511	10.66506122918489	-801.3712758248507	-71.12704804659722	-0.04187514847520231	0.6861506238974823	0.0968629386762216	1.468037878902948	-4.772352589133236	-0.06141679026649229	-1.633306512387487	0.662863803821042	-4.907313154997134	-4.907313154997127	-0.289263759434875	0.009032244807828209	-1.158770467589726	-0.5569453198061701	-4.840412250319454e-08	-5.061845219025482e-08	2.499026131329835e-07	3.289335328536041e-08	-6.643651476060745e-08	2.143691654317399e-07	-5.722402275918675e-08
1.08	-0.09913814754503825	-0.05697979870860388	0.6921368403449653	1.28962355085452	-0.3288202722672148	0.0620148719578149	-0.9593238356544556	1.370875849618419	1.370875849618309	-0.06661633496382817	-0.1745315627764516	0.2763768005678183	0.06282473847944482	0.1633967226740852	0.02915510214502654	0.1905105407610437	-0.6878394974805299	-0.01460300595228925	-0.1976370437144042	0.02650518369446976	-0.5565242056978575	-0.5565242056978601	-0.02653556639221773	-1.298196030891991e-05	-0.06846641754234108	-0.0459678892055161	-0.3727346464045875	0.01701123353063814	0.0003599102877983456	-0.3705381314986204	0.03880963560656613	0.02893515430781891	0.4307907796663502	-38.55696492680217	-5.159372071766369	-0.3812095074640595	10.1681015150766	-801.3656159947402	-71.21437206553321	-0.04193873812910515	0.6756368006029202	0.1161258457239097	1.45301902309046	-4.750758318815311	-0.07172544131067744	-1.597594465295137	0.7567420573390915	-4.893505410618814	-4.893505410618814	-0.3405563441581941	-0.02025596779562842	-1.160177947350854	-0.5694998444106772	-5.290468331878979e-08	-6.374300874752737e-08	2.690488547659494e-07	3.403006164399538e-08	-7.160232193410499e-08	2.162746086844429e-07	-6.166309908047815e-08
